# xmcd
#
# Track frame offsets:
#	150
#	13277
#	31848
#	46488
#	58357
#	73269
#	89811
#	108492
#	129344
#	141977
#	157386
#	170784
#
# Disc length: 2439 seconds
# Revision: 0
# Processed by: cddbd v1.5.2PL0 Copyright (c) Steve Scherf et al.
# Submitted via: dBpowerAMP V12.0
#
DISCID=c009850c
DTITLE=Tony Rook - The Road Back Home
DYEAR=2016
DGENRE=Country
TTITLE0=I'll Make Time
TTITLE1=Lauralee
TTITLE2=Appalachian Springtime
TTITLE3=Reason To Believe
TTITLE4=Down This Road
TTITLE5=House Of Prayer
TTITLE6=Blueridge Breakdown
TTITLE7=Simple People
TTITLE8=Keep On Tryin'
TTITLE9=Darlin' Now's Not The Time
TTITLE10=The Road Back Home
TTITLE11=Wearin' The Blues
EXTD=
EXTT0=
EXTT1=
EXTT2=
EXTT3=
EXTT4=
EXTT5=
EXTT6=
EXTT7=
EXTT8=
EXTT9=
EXTT10=
EXTT11=
PLAYORDER=
